<svg width="32" height="24" viewBox="0 0 32 24" fill="none" xmlns="http://www.w3.org/2000/svg">
<path d="M12.0846 15.9905C16.1694 15.8151 19.4117 13.2003 19.4117 10C19.4117 6.68629 15.9354 4 11.647 4C7.3587 4 3.88232 6.68629 3.88232 10C3.88232 11.1807 4.32354 12.2817 5.08571 13.21L4.53697 14.482L4.53609 14.4839C4.32592 14.9711 4.22078 15.2149 4.29564 15.3771C4.36088 15.5184 4.50568 15.6299 4.68862 15.6803C4.89785 15.7379 5.21105 15.6573 5.83734 15.4959L5.84625 15.4939L7.49296 15.0698C8.69424 15.6588 10.1191 15.9998 11.6471 15.9998C11.7939 15.9998 11.9398 15.9967 12.0846 15.9905ZM12.0846 15.9905C12.0847 15.9907 12.0845 15.9902 12.0846 15.9905ZM12.0846 15.9905C13.147 18.3259 16.0264 20.0002 19.4119 20.0002C20.9399 20.0002 22.3645 19.6588 23.5657 19.0698L25.212 19.4939L25.2152 19.4944C25.8457 19.6567 26.1616 19.7381 26.3716 19.6803C26.5545 19.6299 26.6975 19.5184 26.7627 19.3771C26.8376 19.2146 26.7328 18.9706 26.5221 18.4821L25.9733 17.21L26.1571 16.9746C26.806 16.0979 27.1757 15.0823 27.1757 14C27.1757 10.6863 23.7001 8 19.4117 8L19.1211 8.00414L18.9745 8.00967" stroke="black" stroke-width="2" stroke-linecap="round" stroke-linejoin="round"/>
</svg>
