<?xml version="1.0" encoding="UTF-8"?>
<svg xmlns="http://www.w3.org/2000/svg" width="1000" height="1000" viewBox="0 0 1000 1000" version="1.1">
  <path d="M 493.500 43.652 C 484.900 45.996, 480.926 51.812, 478.911 65 C 477.093 76.903, 479.869 103.429, 487.108 143.335 C 488.788 152.595, 489.893 160.441, 489.563 160.771 C 489.233 161.101, 481.883 160.345, 473.231 159.091 C 441.952 154.558, 437.348 154.043, 427.876 154.022 C 413.812 153.990, 411.281 155.146, 393.581 169.680 L 386.055 175.860 392.649 181.043 C 396.276 183.893, 402.167 188.058, 405.741 190.299 L 412.238 194.373 431.618 194.236 C 442.277 194.161, 457.578 193.351, 465.620 192.436 C 477.917 191.037, 480.379 190.989, 481.105 192.136 C 482.998 195.127, 488.014 211.923, 489.052 218.750 C 491.186 232.789, 487.292 246.342, 477.297 259.662 C 471.197 267.792, 463.758 274.613, 442.975 291.135 C 423.116 306.922, 415.042 316.633, 413.439 326.655 C 413.081 328.893, 412.499 331.143, 412.144 331.654 C 411.749 332.224, 389.060 332.286, 353.500 331.814 C 262.567 330.607, 228.631 332.671, 192.231 341.625 C 130.895 356.713, 76.108 391.774, 42.663 437.342 C 31.981 451.894, 30.288 454.567, 23.163 468.115 C 4.154 504.260, -3.190 543.257, 1.505 583.125 C 4.466 608.276, 14.828 641.222, 33.467 684.750 C 46.664 715.569, 49.897 722.500, 79.994 784.500 C 95.438 816.316, 100.067 825.976, 106.111 839 L 111.912 851.500 105.063 858 C 91.839 870.551, 86.130 880.307, 84.001 893.993 C 81.116 912.539, 89.487 935.120, 104.236 948.576 C 117.052 960.268, 129.707 959.735, 154.163 946.473 C 165.030 940.581, 170.066 938.472, 195 929.371 C 200.225 927.464, 206.750 925.048, 209.500 924.003 C 215.930 921.558, 250.522 910.577, 259.562 908.110 C 335.234 887.461, 380.354 879.564, 454.210 874.041 C 490.693 871.313, 536.184 871.854, 577 875.501 C 586.075 876.312, 596.425 877.234, 600 877.550 C 618.149 879.152, 665.410 887.065, 693.500 893.204 C 733.159 901.872, 786.964 918.138, 826 933.260 C 861.757 947.111, 860.047 946.581, 873.595 947.999 C 887.626 949.466, 901.258 948.158, 905.332 944.953 C 908.419 942.526, 913.767 928.811, 915.598 918.628 C 917.494 908.085, 918.475 889.257, 917.568 880.791 C 916.617 871.906, 913.594 867.520, 901.170 856.995 L 891.285 848.620 893.755 843.060 C 895.114 840.002, 899.276 830.750, 903.004 822.500 C 906.732 814.250, 913.704 798.725, 918.496 788 C 935.416 750.134, 943.341 733.282, 953.768 713 C 983.282 655.588, 988.366 642.915, 995.516 608.922 C 999.166 591.574, 1002.725 543.816, 1000.255 545.343 C 999.764 545.646, 998.860 540.631, 998.247 534.197 C 996.281 513.573, 988.698 488.256, 978.117 466.995 C 941.670 393.758, 859.518 344.593, 761.500 337.359 C 739.664 335.747, 713.711 335.909, 663 337.973 C 650.075 338.499, 630.694 339.239, 619.932 339.617 L 600.364 340.304 593.535 329.402 C 573.245 297.013, 568.898 292.061, 553.815 284.162 C 540.804 277.348, 534.719 272.819, 528.585 265.381 C 517.760 252.258, 515.754 236.915, 520.902 206.613 C 522.573 196.775, 524.178 188.489, 524.467 188.200 C 524.756 187.910, 533.882 188.970, 544.747 190.556 C 559.675 192.734, 568.286 193.445, 580 193.469 C 595.015 193.499, 595.673 193.413, 601.012 190.707 C 604.044 189.171, 609.450 185.571, 613.025 182.707 C 616.600 179.843, 620.870 176.459, 622.513 175.187 C 624.156 173.915, 625.024 172.669, 624.442 172.418 C 623.860 172.167, 619.810 169.599, 615.442 166.713 C 611.074 163.826, 604.314 160.009, 600.420 158.232 C 593.517 155.081, 592.994 155, 579.420 155.012 C 570.297 155.019, 556.909 156.049, 540.571 158 C 526.861 159.637, 515.433 160.766, 515.176 160.510 C 514.589 159.923, 516.448 148.081, 519.573 132.500 C 522.508 117.865, 525.595 96.902, 526.984 82.166 C 528.838 62.514, 525.423 49.354, 517.500 45.610 C 513.484 43.712, 497.935 42.443, 493.500 43.652 M 690.500 365.032 C 677.455 365.656, 638.256 370.299, 634 371.725 C 633.175 372.001, 644.650 375.305, 659.500 379.066 C 688.293 386.359, 698.178 389.113, 712.500 393.830 C 740.229 402.963, 755.656 410.535, 779.906 426.918 C 786.650 431.474, 805.471 451.431, 811.378 460.291 C 828.187 485.498, 836.696 512.380, 837.718 543.500 C 838.350 562.736, 835.401 585.747, 829.452 608 C 826.839 617.774, 815.714 652.687, 810.970 666 C 806.551 678.400, 804.744 684.083, 805.132 684.355 C 805.747 684.786, 821.199 690.095, 826 691.524 C 828.475 692.262, 836.350 694.961, 843.500 697.522 C 850.650 700.084, 859.650 703.233, 863.500 704.520 C 867.350 705.806, 876.350 708.936, 883.500 711.475 C 894.743 715.467, 905.045 718.954, 905.700 718.989 C 906.353 719.024, 920.585 701.152, 925.570 694.036 C 936.072 679.045, 940.964 670.811, 948.464 655.500 C 963.627 624.545, 971.008 595.203, 970.976 566 C 970.958 549.160, 970.074 541.986, 965.986 525.500 C 959.874 500.854, 947.912 476.140, 932.106 455.500 C 925.139 446.401, 906.971 428.033, 896.677 419.680 C 883.927 409.334, 870.906 401.113, 854.500 393.055 C 808.495 370.456, 757.896 361.811, 690.500 365.032 M 234 366.518 C 192.997 371.598, 161.240 381.868, 132.500 399.343 C 98.561 419.979, 65.433 455.576, 48.620 489.474 C 36.074 514.769, 29.951 543.447, 31.451 569.883 C 34.100 616.548, 51.988 661.577, 87.196 710.208 C 92.250 717.189, 93.896 718.813, 95.500 718.397 C 97.380 717.909, 110.842 713.607, 158.500 698.263 C 183.173 690.319, 198.023 685.310, 198.593 684.740 C 198.831 684.502, 197.849 681.651, 196.410 678.404 C 194.972 675.157, 192.690 669.575, 191.341 666 C 189.992 662.425, 187.525 655.900, 185.860 651.500 C 171.660 613.980, 163.967 578.589, 164.020 551.028 C 164.108 506.105, 181.022 463.190, 208.887 437.196 C 235.576 412.298, 258.978 401.020, 333.753 377.018 C 342.691 374.148, 350.209 371.470, 350.459 371.066 C 350.917 370.325, 333.307 367.873, 314.144 366.008 C 299.579 364.590, 246.848 364.926, 234 366.518 M 382.500 409.034 C 358.579 409.722, 352.248 410.327, 329.500 414.101 C 316.146 416.316, 296.433 421.701, 285 426.255 C 257.094 437.373, 232.175 457.470, 215.642 482.191 C 206.160 496.370, 201.634 507.248, 198.344 523.767 C 195.209 539.508, 194.823 562.400, 197.412 579 C 198.313 584.775, 199.480 592.425, 200.005 596 C 200.996 602.752, 207.927 627.328, 212.272 639.500 C 215.233 647.795, 225.134 669.030, 228.357 674 C 235.192 684.539, 240.548 692.022, 244.293 696.267 L 248.500 701.033 255.500 698.627 C 259.350 697.304, 267 694.558, 272.500 692.525 C 278 690.492, 285.425 687.790, 289 686.520 C 292.575 685.250, 301.575 681.879, 309 679.029 C 316.425 676.178, 324.300 673.239, 326.500 672.498 C 328.700 671.757, 335.450 669.288, 341.500 667.011 C 347.550 664.734, 356.100 661.542, 360.500 659.917 C 364.900 658.292, 369.123 656.570, 369.884 656.090 C 371.027 655.368, 370.564 652.378, 367.212 638.858 C 361.664 616.483, 358.034 599.060, 356.929 589.510 C 356.419 585.104, 355.555 577.675, 355.009 573 C 353.392 559.170, 353.799 536.746, 355.955 520.885 C 361.471 480.305, 379.350 447.160, 412.913 415.297 L 420.500 408.094 413.500 408.218 C 409.650 408.287, 395.700 408.654, 382.500 409.034 M 603.500 408.576 C 596.741 409.072, 581.686 411.135, 580.725 411.696 C 580.298 411.945, 582.297 414.253, 585.166 416.825 C 612.503 441.326, 629.992 466.832, 639.300 495.774 C 651.012 532.189, 650.861 569.832, 638.787 623.340 C 636.574 633.152, 633.926 643.940, 632.905 647.314 C 631.883 650.688, 631.375 653.720, 631.774 654.052 C 632.173 654.385, 636.100 656.134, 640.500 657.939 C 644.900 659.744, 650.975 662.265, 654 663.541 C 657.025 664.818, 661.300 666.503, 663.500 667.286 C 665.700 668.069, 676.050 672.207, 686.500 676.481 C 696.950 680.755, 708.265 685.279, 711.645 686.535 C 715.025 687.790, 718.800 689.358, 720.035 690.019 C 721.269 690.679, 723.454 691.583, 724.889 692.028 C 726.325 692.472, 733.575 695.344, 741 698.409 C 748.425 701.475, 755.012 703.987, 755.638 703.991 C 756.654 703.999, 763.978 689.822, 775.781 665 C 792.049 630.790, 801.302 602.738, 804.915 576.678 C 806.306 566.649, 806.307 547.923, 804.918 538.692 C 802.283 521.190, 795.765 501.200, 787.873 486.425 C 781.026 473.605, 776.214 467.023, 767.093 457.999 C 743.629 434.787, 706.567 418.626, 658 410.429 C 649.808 409.047, 613.783 407.822, 603.500 408.576 M 457.500 430.350 C 446.789 433.885, 438.056 441.228, 423.172 459.214 C 407.875 477.698, 398.284 494.655, 393.414 511.821 C 390.785 521.092, 390.773 521.286, 391.259 547.821 C 391.771 575.720, 392.551 583.797, 399.488 633 C 401.388 646.475, 403.583 663.040, 404.366 669.811 C 405.149 676.582, 405.951 682.285, 406.150 682.483 C 406.348 682.681, 410.899 683.166, 416.264 683.559 L 426.018 684.275 432.759 678.325 C 436.467 675.052, 444.675 668.156, 451 663 C 471.073 646.636, 481.028 635.428, 484.493 625.293 C 491.572 604.588, 493.304 545.378, 489.110 467.500 C 488.253 451.572, 486.641 445.538, 481.303 438.272 C 476.145 431.251, 465.503 427.709, 457.500 430.350 M 538.275 432.063 C 533.525 433.056, 530.229 435.569, 526.999 440.663 C 521.309 449.634, 521.573 443.671, 520.707 583 C 520.569 605.251, 522.004 615.101, 527.148 627.187 C 536.509 649.186, 553.525 663.159, 584.869 674.585 C 590.022 676.463, 594.345 678, 594.474 678 C 594.604 678, 595.262 673.837, 595.936 668.750 C 596.610 663.663, 598.671 651.850, 600.516 642.500 C 610.439 592.206, 612.545 576.104, 612.417 551.500 C 612.321 533.089, 610.707 523.186, 605.569 509.500 C 597.995 489.323, 579.984 460.990, 563.204 442.857 C 555.587 434.625, 545.960 430.457, 538.275 432.063 M 0.397 560 C 0.397 567.975, 0.553 571.237, 0.743 567.250 C 0.932 563.263, 0.932 556.737, 0.743 552.750 C 0.553 548.763, 0.397 552.025, 0.397 560 M 482 676.923 C 472.079 680.198, 467.586 682.692, 461.329 688.397 C 449.877 698.840, 443.833 714.536, 443.747 734.052 C 443.653 755.587, 452.223 767.165, 471 770.871 C 474.424 771.547, 488.203 771.863, 507.500 771.709 C 534.919 771.489, 539.163 771.240, 544.240 769.551 C 558.179 764.913, 563.964 754.165, 563.988 732.862 C 564.019 705.250, 551.637 686.443, 528.083 678.322 C 518.812 675.125, 517.995 675.019, 503 675.063 C 490.802 675.098, 486.328 675.494, 482 676.923 M 332.500 696.651 C 299.458 701.972, 282.360 719.755, 279.372 751.908 C 278.417 762.179, 281.084 769.094, 290.581 780.978 C 294.747 786.190, 298.470 791.017, 298.854 791.703 C 300.201 794.110, 349.446 787.816, 365.505 783.184 C 383.170 778.089, 392.223 772.330, 396.585 763.415 C 399.042 758.395, 399.228 757.198, 398.726 749.707 C 397.001 724.022, 382.250 704.886, 359.500 698.818 C 352.405 696.925, 337.983 695.768, 332.500 696.651 M 643.389 699.002 C 611.854 706.129, 594.856 732.209, 603.631 760 C 607.003 770.677, 615.579 779.067, 625.315 781.216 C 627.617 781.724, 640.075 782.493, 653 782.924 C 672.208 783.566, 678.123 784.119, 685.384 785.953 C 698.207 789.191, 698.077 789.242, 716.320 774 L 724.100 767.500 723.596 761.500 C 722.862 752.751, 717.509 735.174, 713.024 726.784 C 707.982 717.352, 698.543 707.823, 690 703.542 C 677.404 697.230, 659.113 695.448, 643.389 699.002 M 801.724 727.850 C 798.546 731.507, 792.333 738.550, 787.917 743.500 C 772.330 760.969, 767.481 770.738, 767.566 784.500 C 767.694 805.369, 776.606 815.143, 801.252 821.449 C 806.616 822.822, 814.941 824.409, 819.752 824.977 C 824.564 825.544, 832.894 826.979, 838.264 828.166 C 849.577 830.665, 849.625 830.652, 858.617 822.637 C 866.675 815.456, 875.424 803.967, 880.246 794.236 C 883.943 786.775, 884.435 784.929, 884.808 777.131 C 885.977 752.683, 873.311 737.502, 843.971 728.187 C 838.762 726.534, 829.325 724.446, 823 723.549 C 816.675 722.652, 810.600 721.756, 809.500 721.559 C 808.053 721.299, 805.902 723.039, 801.724 727.850 M 165 724.968 C 135.805 728.076, 120.349 747.584, 113.578 789.874 L 112.305 797.823 123.240 808.090 C 136.798 820.820, 139.835 823.243, 148 827.840 L 154.500 831.500 170 831.469 C 185.221 831.440, 185.653 831.378, 194 828.068 C 204.735 823.810, 217.463 815.503, 223.443 808.853 C 225.983 806.027, 229.694 800.796, 231.689 797.228 C 236.470 788.679, 237.196 780.165, 234.164 768.177 C 228.682 746.500, 215.946 732.138, 197.366 726.684 C 190.882 724.780, 174.780 723.927, 165 724.968" stroke="none" fill="black" fill-rule="evenodd"></path>
</svg>
